  <svg class="logo" xmlns="http://www.w3.org/2000/svg" width="50" height="50" viewBox="10 2 11 18">
                              <path
                                fill="#ffffff"
                                d="
                                  M14.4727 2.7299
                                  C14.5893 2.4676 14.9615 2.4676 15.0781 2.7299
                                  L15.9094 4.3864
                                  C16.9063 6.1068 18.2301 7.6138 19.8042 8.8230
                                  L21.1503 9.7467
                                  C21.8292 10.1395 21.8292 10.4497 21.1503 10.8425
                                  L20.1718 11.4924
                                  C18.4357 12.7448 16.9830 14.3500 15.9094 16.2028
                                  L15.0781 17.8593
                                  C14.9615 18.1215 14.5893 18.1215 14.4727 17.8593
                                  L13.6414 16.2028
                                  C12.6445 14.4823 11.3206 12.9754 9.7466 11.7661
                                  L8.4005 10.8425
                                  C7.7215 10.4497 7.7215 10.1395 8.4005 9.7467
                                  L9.7466 8.8230
                                  C11.3206 7.6138 12.6445 6.1068 13.6414 4.3864
                                  L14.4727 2.7299
                                  Z
                                "
                              />
                            </svg>